<?xml version="1.0" encoding="utf-8"?>
<!-- Generator: Adobe Illustrator 26.5.0, SVG Export Plug-In . SVG Version: 6.00 Build 0)  -->
<svg version="1.1" xmlns="http://www.w3.org/2000/svg" xmlns:xlink="http://www.w3.org/1999/xlink" x="0px" y="0px"
	 viewBox="0 0 800 800" style="enable-background:new 0 0 800 800;" xml:space="preserve">
<style type="text/css">
	.st0{clip-path:url(#SVGID_00000026851493229133275760000017934590946705255067_);fill:#FEC837;}
	.st1{clip-path:url(#SVGID_00000026851493229133275760000017934590946705255067_);}
	.st2{fill:#FFFFFF;}
	.st3{display:none;clip-path:url(#SVGID_00000026851493229133275760000017934590946705255067_);}
	.st4{display:inline;}
	.st5{fill:#424242;}
	.st6{font-family:'Antonio-Light';}
	.st7{font-size:27.9069px;}
	.st8{font-family:'Antonio-Bold';}
	.st9{font-size:44.0041px;}
	.st10{letter-spacing:4;}
	.st11{display:inline;fill:none;}
	.st12{display:inline;fill:#424242;}
	.st13{font-size:9px;}
	.st14{display:inline;fill:none;stroke:#000000;stroke-miterlimit:10;}
	.st15{fill:none;}
	.st16{fill:url(#SVGID_00000093873512898610004280000005236865543743816867_);}
	.st17{fill:#FFE697;}
	.st18{fill:#949494;stroke:#424242;stroke-width:2;stroke-miterlimit:10;}
	.st19{fill:#4D4D4D;stroke:#424242;stroke-width:2;stroke-miterlimit:10;}
	.st20{fill:#E02424;}
	.st21{fill:#043146;stroke:#424242;stroke-width:2;stroke-miterlimit:10;}
	.st22{fill:#7C7C7C;stroke:#424242;stroke-width:2;stroke-miterlimit:10;}
	.st23{fill:#3EC2E5;stroke:#424242;stroke-width:2;stroke-miterlimit:10;}
	.st24{opacity:0.08;}
	.st25{stroke:#424242;stroke-width:2;stroke-miterlimit:10;}
</style>
<g id="BACKGROUND">
	<g>
		<defs>
			<rect id="SVGID_1_" width="800" height="800"/>
		</defs>
		<clipPath id="SVGID_00000085935329771934168730000009534592477579285932_">
			<use xlink:href="#SVGID_1_"  style="overflow:visible;"/>
		</clipPath>
		
			<rect style="clip-path:url(#SVGID_00000085935329771934168730000009534592477579285932_);fill:#FEC837;" width="800" height="800"/>
		<g style="clip-path:url(#SVGID_00000085935329771934168730000009534592477579285932_);">
			<g>
				<path class="st2" d="M209.45,618.81L-1.89,619v181.57h803.96V620.45H565.63c-1.09-28.33-24.39-50.96-52.98-50.96
					c-7.68,0-14.97,1.65-21.56,4.58c-3.4-13.65-15.7-23.78-30.4-23.78c-0.01,0-0.02,0-0.03,0c-0.02-0.57-0.06-1.13-0.13-1.68
					c0.1-0.79,0.16-1.59,0.16-2.4c0-10.45-8.47-18.93-18.93-18.93c-2.39,0-4.67,0.46-6.78,1.27c-1.08-7.23-6.22-13.13-13.05-15.26
					l-9.25-24.41h-14.99l-9.08,23.97c-1.17-0.27-2.38-0.42-3.63-0.42c-8.97,0-16.25,7.27-16.25,16.25c0,0.81,0.08,1.59,0.2,2.37
					c-0.03,0.18-0.06,0.35-0.08,0.53c-2.62-0.97-5.43-1.53-8.39-1.53c-13.34,0-24.16,10.8-24.19,24.14
					c-0.83-0.14-1.68-0.23-2.56-0.23c-6.25,0-11.62,3.7-14.08,9.02c-8.37-5.52-18.38-8.73-29.15-8.73
					c-29.29,0-53.03,23.74-53.03,53.03c0,0.78,0.03,1.55,0.06,2.32c-0.01,0.25-0.01,0.51-0.02,0.76c-2.77-4.26-7.55-7.08-13.01-7.08
					c-8.57,0-16.28,8.45-16.28,17.02"/>
			</g>
			<g>
				<path class="st2" d="M523.93,543.55c-0.17-2.89-2.57-5.18-5.51-5.18c-2.38,0-4.4,1.5-5.18,3.61c-1.02-1.12-2.49-1.83-4.13-1.83
					c-3.08,0-5.57,2.5-5.57,5.57c0,2.12,1.18,3.96,2.92,4.9c-0.85,0.97-1.36,2.24-1.36,3.62c0,3.05,2.47,5.52,5.52,5.52
					c1.05,0,2.04-0.3,2.88-0.81c0.01,0,0.01,0.01,0.02,0.01c-0.05,0.26-0.08,0.52-0.08,0.79c0,2.21,1.79,4,4,4s4-1.79,4-4
					c0-0.32-0.04-0.64-0.11-0.94c0.68,0.2,1.4,0.3,2.15,0.3c4.31,0,7.8-3.49,7.8-7.8C531.27,547.19,528.02,543.79,523.93,543.55z"/>
				<path class="st2" d="M330.96,508.76c-0.17-2.89-2.57-5.18-5.51-5.18c-2.38,0-4.4,1.5-5.18,3.61c-1.02-1.12-2.49-1.83-4.13-1.83
					c-3.08,0-5.57,2.5-5.57,5.57c0,2.12,1.18,3.96,2.92,4.9c-0.85,0.97-1.36,2.24-1.36,3.62c0,3.05,2.47,5.52,5.52,5.52
					c1.05,0,2.04-0.3,2.88-0.81c0.01,0,0.01,0.01,0.02,0.01c-0.05,0.26-0.08,0.52-0.08,0.79c0,2.21,1.79,4,4,4c2.21,0,4-1.79,4-4
					c0-0.32-0.04-0.64-0.11-0.94c0.68,0.2,1.41,0.3,2.15,0.3c4.31,0,7.8-3.49,7.8-7.8C338.3,512.39,335.05,509,330.96,508.76z"/>
				<path class="st2" d="M549.37,557.91c-0.08-1.29-1.15-2.32-2.46-2.32c-1.06,0-1.97,0.67-2.32,1.61c-0.46-0.5-1.11-0.82-1.85-0.82
					c-1.38,0-2.49,1.12-2.49,2.49c0,0.95,0.53,1.77,1.31,2.19c-0.38,0.43-0.61,1-0.61,1.62c0,1.36,1.1,2.47,2.47,2.47
					c0.47,0,0.91-0.13,1.29-0.36c0,0,0.01,0,0.01,0.01c-0.02,0.11-0.04,0.23-0.04,0.36c0,0.99,0.8,1.79,1.79,1.79
					c0.99,0,1.79-0.8,1.79-1.79c0-0.14-0.02-0.28-0.05-0.42c0.31,0.09,0.63,0.14,0.96,0.14c1.93,0,3.49-1.56,3.49-3.49
					C552.65,559.54,551.2,558.02,549.37,557.91z"/>
				<path class="st2" d="M365.68,494.97c-0.1-1.71-1.52-3.06-3.25-3.06c-1.4,0-2.6,0.89-3.06,2.13c-0.6-0.66-1.47-1.08-2.44-1.08
					c-1.82,0-3.29,1.47-3.29,3.29c0,1.25,0.7,2.34,1.73,2.9c-0.5,0.57-0.8,1.32-0.8,2.14c0,1.8,1.46,3.26,3.26,3.26
					c0.62,0,1.2-0.17,1.7-0.48c0,0,0.01,0.01,0.01,0.01c-0.03,0.15-0.05,0.31-0.05,0.47c0,1.3,1.06,2.36,2.36,2.36
					s2.36-1.06,2.36-2.36c0-0.19-0.03-0.38-0.07-0.55c0.4,0.12,0.83,0.18,1.27,0.18c2.54,0,4.61-2.06,4.61-4.61
					C370.02,497.12,368.1,495.11,365.68,494.97z"/>
				<path class="st2" d="M307.29,535.01c-0.08-1.29-1.15-2.32-2.46-2.32c-1.06,0-1.97,0.67-2.32,1.61c-0.46-0.5-1.11-0.82-1.85-0.82
					c-1.38,0-2.49,1.12-2.49,2.49c0,0.95,0.53,1.77,1.31,2.19c-0.38,0.43-0.61,1-0.61,1.62c0,1.36,1.1,2.47,2.47,2.47
					c0.47,0,0.91-0.13,1.29-0.36c0,0,0.01,0,0.01,0.01c-0.02,0.11-0.04,0.23-0.04,0.36c0,0.99,0.8,1.79,1.79,1.79
					c0.99,0,1.79-0.8,1.79-1.79c0-0.14-0.02-0.28-0.05-0.42c0.31,0.09,0.63,0.14,0.96,0.14c1.93,0,3.49-1.56,3.49-3.49
					C310.57,536.63,309.12,535.12,307.29,535.01z"/>
				<path class="st2" d="M185.24,250.48c-5.38,0-10.41,1.48-14.72,4.04c-1.03-15-13.51-26.85-28.78-26.85
					c-3.72,0-7.27,0.71-10.54,1.99c-4.16-13.91-17.04-24.05-32.3-24.05c-18.62,0-33.72,15.1-33.72,33.72c0,0.48,0.02,0.95,0.04,1.42
					c-0.01,0-0.02,0-0.04,0c-18.62,0-33.72,15.1-33.72,33.72c0,18.62,15.1,33.72,33.72,33.72c1.16,0,2.31-0.06,3.44-0.17h113.47
					c1.03,0.11,2.08,0.17,3.15,0.17c15.93,0,28.85-12.92,28.85-28.85C214.09,263.4,201.17,250.48,185.24,250.48z"/>
				<path class="st2" d="M648.1,420.53c4.48,0,8.67,1.23,12.26,3.36c0.86-12.49,11.25-22.36,23.96-22.36c3.1,0,6.05,0.59,8.77,1.66
					c3.46-11.58,14.19-20.02,26.9-20.02c15.5,0,28.07,12.57,28.07,28.07c0,0.4-0.01,0.79-0.03,1.18c0.01,0,0.02,0,0.03,0
					c15.5,0,28.07,12.57,28.07,28.07c0,15.5-12.57,28.07-28.07,28.07c-0.97,0-1.92-0.05-2.87-0.14h-94.48
					c-0.86,0.09-1.73,0.14-2.62,0.14c-13.27,0-24.02-10.76-24.02-24.02S634.84,420.53,648.1,420.53z"/>
				<path class="st2" d="M90.83,436.49c2.45,0,4.75,0.67,6.71,1.84c0.47-6.84,6.16-12.24,13.12-12.24c1.7,0,3.32,0.32,4.8,0.91
					c1.9-6.34,7.77-10.96,14.73-10.96c8.49,0,15.37,6.88,15.37,15.37c0,0.22-0.01,0.43-0.02,0.65c0.01,0,0.01,0,0.02,0
					c8.49,0,15.37,6.88,15.37,15.37s-6.88,15.37-15.37,15.37c-0.53,0-1.05-0.03-1.57-0.08H92.26c-0.47,0.05-0.95,0.08-1.43,0.08
					c-7.26,0-13.15-5.89-13.15-13.15S83.56,436.49,90.83,436.49z"/>
				<path class="st2" d="M648.84,232.53c-3.09,0-5.98,0.85-8.45,2.32c-0.59-8.61-7.76-15.41-16.52-15.41c-1.89,0-3.7,0.34-5.4,0.92
					c-2.44-7.89-9.8-13.63-18.49-13.63c-0.65,0-1.3,0.04-1.93,0.11c-8.12,0.51-14.89,6.01-17.23,13.49
					c-1.7-0.59-3.52-0.93-5.42-0.93c-8.76,0-15.93,6.8-16.52,15.41c-2.47-1.47-5.36-2.32-8.45-2.32c-9.15,0-16.56,7.41-16.56,16.56
					c0,9.15,7.41,16.56,16.56,16.56c0.61,0,1.21-0.04,1.81-0.1h25.44c0.74,0.09,1.5,0.14,2.26,0.14c0.67,0,1.33-0.03,1.98-0.1h36.32
					c0.37,0.02,0.74,0.06,1.11,0.06c0.38,0,0.74-0.04,1.11-0.06h26.59c0.59,0.06,1.2,0.1,1.81,0.1c9.15,0,16.56-7.41,16.56-16.56
					C665.4,239.94,657.98,232.53,648.84,232.53z"/>
			</g>
		</g>
		<g style="display:none;clip-path:url(#SVGID_00000085935329771934168730000009534592477579285932_);">
			<g class="st4">
				<text transform="matrix(1 0 0 1 348.0702 634.5273)" class="st5 st6 st7">BUSINES</text>
				<text transform="matrix(1 0 0 1 293.7748 687.2695)" class="st5 st8 st9 st10">START UP</text>
			</g>
			<rect x="309.91" y="715.6" class="st11" width="180.17" height="35.21"/>
			<text transform="matrix(1 0 0 1 322.1207 721.9932)"><tspan x="0" y="0" class="st12 st6 st13">Lorem ipsum dolor sit amet, consectetuer </tspan><tspan x="2.82" y="10.8" class="st12 st6 st13">adipiscing elit, sed diam nonummy nibh </tspan><tspan x="-2.84" y="21.6" class="st12 st6 st13">euismod tincidunt ut laoreet dolore magna </tspan></text>
			<line class="st14" x1="368.02" y1="701.81" x2="431.98" y2="701.81"/>
		</g>
	</g>
	<rect x="343.81" y="623.19" class="st15" width="119.81" height="12.26"/>
</g>
<g id="OBJECT">
	<g>
		<g>
			<g>
				
					<linearGradient id="SVGID_00000022558704106185902080000003163341502655810971_" gradientUnits="userSpaceOnUse" x1="403.382" y1="445.5711" x2="403.382" y2="509.6501">
					<stop  offset="5.586590e-03" style="stop-color:#F7BD6F"/>
					<stop  offset="0.4496" style="stop-color:#F39958"/>
					<stop  offset="1" style="stop-color:#ED6637"/>
				</linearGradient>
				<path style="fill:url(#SVGID_00000022558704106185902080000003163341502655810971_);" d="M421.73,445.57h-36.69
					c0,0-12.03,12.6-10.37,31.15c0,0,3.4-3.85,6.1-5.85c0.49-0.36,1.17,0.05,1.08,0.66c-0.65,4.19-0.09,16.76,21.54,38.11
					c21.63-21.36,22.19-33.92,21.54-38.11c-0.09-0.6,0.58-1.02,1.08-0.66c2.7,2,6.1,5.85,6.1,5.85
					C433.76,458.18,421.73,445.57,421.73,445.57z"/>
			</g>
			<path class="st17" d="M403.28,431.27v0.01c0,0-23.49,18.65,0,50.76v-0.01C426.77,449.92,403.28,431.27,403.28,431.27z"/>
			<path class="st2" d="M403.28,443.19L403.28,443.19c0,0.01-14.04,11.15,0,30.34v-0.01C417.32,454.33,403.28,443.19,403.28,443.19z
				"/>
		</g>
		<g>
			<path class="st18" d="M376.92,437.15l2.67,5.15c1.14,2.19,3.4,3.57,5.87,3.57h17.68h0.03h17.68c2.47,0,4.73-1.38,5.87-3.57
				l2.67-5.15H376.92z"/>
			<path class="st19" d="M369.36,427.39l3.44,6.63c1.46,2.82,4.38,4.59,7.56,4.59h22.78h0.04h22.78c3.18,0,6.09-1.77,7.56-4.59
				l3.44-6.63H369.36z"/>
		</g>
		<g>
			<g>
				<path class="st20" d="M435.73,376.62c0,0,57.51,19.75,53.85,77.55c0,0-48.42-49.33-74.77-38.77L435.73,376.62z"/>
			</g>
			<g>
				<path class="st20" d="M371.03,376.62c0,0-57.51,19.75-53.85,77.55c0,0,48.42-49.33,74.77-38.77L371.03,376.62z"/>
			</g>
		</g>
		<path class="st20" d="M431.07,266.13c-6.65-16.71-15.72-33.02-27.94-47.99l-0.01,0.07l-0.01-0.07
			c-12.09,14.82-21.09,30.94-27.73,47.47C388.32,262.52,407.84,260.43,431.07,266.13z"/>
		<path class="st2" d="M431.83,268.09L431.83,268.09l-0.76-1.96c-30.76-7.9-55.68-0.52-55.68-0.52l-0.98,2.48c0,0,0,0,0,0
			c-25.42,65.83-13.9,137.29-9.81,157.46c0.66,3.25,3.52,5.58,6.84,5.58h4.34h55.12h3.89c3.32,0,6.18-2.33,6.84-5.58
			C445.73,405.38,457.26,333.92,431.83,268.09z"/>
		<g>
			<circle class="st21" cx="401.99" cy="319.33" r="23.59"/>
			
				<ellipse transform="matrix(0.9256 -0.3785 0.3785 0.9256 -91.291 176.4263)" class="st22" cx="403.13" cy="320.43" rx="18.05" ry="18.05"/>
			<circle class="st23" cx="401.99" cy="319.33" r="17.88"/>
			<g class="st24">
				<path class="st25" d="M403.13,304.48c7.08,0,13.18,4.13,16.08,10.1c-2.09-7.56-8.99-13.12-17.22-13.12
					c-9.87,0-17.88,8-17.88,17.88c0,2.79,0.66,5.43,1.8,7.78c-0.42-1.52-0.66-3.11-0.66-4.76
					C385.25,312.48,393.25,304.48,403.13,304.48z"/>
			</g>
		</g>
		<path class="st20" d="M403.38,383.82c-19.27,43.86,0,81.78,0,81.78S422.65,427.68,403.38,383.82z"/>
	</g>
</g>
</svg>
