<?xml version="1.0" encoding="utf-8"?>
<!-- Generator: Adobe Illustrator 26.5.0, SVG Export Plug-In . SVG Version: 6.00 Build 0)  -->
<svg version="1.1" xmlns="http://www.w3.org/2000/svg" xmlns:xlink="http://www.w3.org/1999/xlink" x="0px" y="0px"
	 viewBox="0 0 800 800" style="enable-background:new 0 0 800 800;" xml:space="preserve">
<style type="text/css">
	.st0{clip-path:url(#SVGID_00000178200127792893142470000007957749352972252055_);fill:#FEC837;}
	.st1{display:none;clip-path:url(#SVGID_00000178200127792893142470000007957749352972252055_);}
	.st2{display:inline;fill:#FFFFFF;}
	.st3{display:inline;}
	.st4{fill:#FFFFFF;}
	.st5{fill:#424242;}
	.st6{font-family:'Antonio-Light';}
	.st7{font-size:27.9069px;}
	.st8{font-family:'Antonio-Bold';}
	.st9{font-size:44.0041px;}
	.st10{letter-spacing:4;}
	.st11{display:inline;fill:none;}
	.st12{display:inline;fill:#424242;}
	.st13{font-size:9px;}
	.st14{display:inline;fill:none;stroke:#000000;stroke-miterlimit:10;}
	.st15{fill:none;}
	.st16{fill:url(#SVGID_00000052091510723015813810000016062549181016644757_);}
	.st17{fill:#FFE697;}
	.st18{fill:#949494;stroke:#424242;stroke-width:2;stroke-miterlimit:10;}
	.st19{fill:#4D4D4D;stroke:#424242;stroke-width:2;stroke-miterlimit:10;}
	.st20{fill:#E02424;}
	.st21{fill:#043146;stroke:#424242;stroke-width:2;stroke-miterlimit:10;}
	.st22{fill:#7C7C7C;stroke:#424242;stroke-width:2;stroke-miterlimit:10;}
	.st23{fill:#3EC2E5;stroke:#424242;stroke-width:2;stroke-miterlimit:10;}
	.st24{opacity:0.08;}
	.st25{stroke:#424242;stroke-width:2;stroke-miterlimit:10;}
</style>
<g id="BACKGROUND">
	<g>
		<defs>
			<rect id="SVGID_1_" width="800" height="800"/>
		</defs>
		<clipPath id="SVGID_00000129165002324012875740000007136068094959462802_">
			<use xlink:href="#SVGID_1_"  style="overflow:visible;"/>
		</clipPath>
		
			<rect style="clip-path:url(#SVGID_00000129165002324012875740000007136068094959462802_);fill:#FEC837;" width="800" height="800"/>
		<g style="display:none;clip-path:url(#SVGID_00000129165002324012875740000007136068094959462802_);">
			<g>
				<path class="st2" d="M208.87,701.64l-211.33,0.19V883.4H801.5V703.28H565.06c-1.09-28.33-24.39-50.96-52.98-50.96
					c-7.68,0-14.97,1.65-21.56,4.58c-3.4-13.65-15.7-23.78-30.4-23.78c-0.01,0-0.02,0-0.03,0c-0.02-0.57-0.06-1.13-0.13-1.68
					c0.1-0.79,0.16-1.59,0.16-2.4c0-10.45-8.47-18.93-18.93-18.93c-2.39,0-4.67,0.46-6.78,1.27c-1.08-7.23-6.22-13.13-13.05-15.26
					l-9.25-24.41h-14.99l-9.08,23.97c-1.17-0.27-2.38-0.42-3.63-0.42c-8.97,0-16.25,7.27-16.25,16.25c0,0.81,0.08,1.59,0.2,2.37
					c-0.03,0.18-0.06,0.35-0.08,0.53c-2.62-0.97-5.43-1.53-8.39-1.53c-13.34,0-24.16,10.8-24.19,24.14
					c-0.83-0.14-1.68-0.23-2.56-0.23c-6.25,0-11.62,3.7-14.08,9.02c-8.37-5.52-18.38-8.73-29.15-8.73
					c-29.29,0-53.03,23.74-53.03,53.03c0,0.78,0.03,1.55,0.06,2.32c-0.01,0.25-0.01,0.51-0.02,0.76c-2.77-4.26-7.55-7.08-13.01-7.08
					c-8.57,0-16.28,8.45-16.28,17.02"/>
			</g>
			<g class="st3">
				<path class="st4" d="M523.35,626.38c-0.17-2.89-2.57-5.18-5.51-5.18c-2.38,0-4.4,1.5-5.18,3.61c-1.02-1.12-2.49-1.83-4.13-1.83
					c-3.08,0-5.57,2.5-5.57,5.57c0,2.12,1.18,3.96,2.92,4.9c-0.85,0.97-1.36,2.24-1.36,3.62c0,3.05,2.47,5.52,5.52,5.52
					c1.05,0,2.04-0.3,2.88-0.81c0.01,0,0.01,0.01,0.02,0.01c-0.05,0.26-0.08,0.52-0.08,0.79c0,2.21,1.79,4,4,4s4-1.79,4-4
					c0-0.32-0.04-0.64-0.11-0.94c0.68,0.2,1.4,0.3,2.15,0.3c4.31,0,7.8-3.49,7.8-7.8C530.7,630.01,527.45,626.62,523.35,626.38z"/>
				<path class="st4" d="M330.38,591.59c-0.17-2.89-2.57-5.18-5.51-5.18c-2.38,0-4.4,1.5-5.18,3.61c-1.02-1.12-2.49-1.83-4.13-1.83
					c-3.08,0-5.57,2.5-5.57,5.57c0,2.12,1.18,3.96,2.92,4.9c-0.85,0.97-1.36,2.24-1.36,3.62c0,3.05,2.47,5.52,5.52,5.52
					c1.05,0,2.04-0.3,2.88-0.81c0.01,0,0.01,0.01,0.02,0.01c-0.05,0.26-0.08,0.52-0.08,0.79c0,2.21,1.79,4,4,4c2.21,0,4-1.79,4-4
					c0-0.32-0.04-0.64-0.11-0.94c0.68,0.2,1.41,0.3,2.15,0.3c4.31,0,7.8-3.49,7.8-7.8C337.73,595.22,334.48,591.82,330.38,591.59z"
					/>
				<path class="st4" d="M548.79,640.74c-0.08-1.29-1.15-2.32-2.46-2.32c-1.06,0-1.97,0.67-2.32,1.61c-0.46-0.5-1.11-0.82-1.85-0.82
					c-1.38,0-2.49,1.12-2.49,2.49c0,0.95,0.53,1.77,1.31,2.19c-0.38,0.43-0.61,1-0.61,1.62c0,1.36,1.1,2.47,2.47,2.47
					c0.47,0,0.91-0.13,1.29-0.36c0,0,0.01,0,0.01,0.01c-0.02,0.11-0.04,0.23-0.04,0.36c0,0.99,0.8,1.79,1.79,1.79
					c0.99,0,1.79-0.8,1.79-1.79c0-0.14-0.02-0.28-0.05-0.42c0.31,0.09,0.63,0.14,0.96,0.14c1.93,0,3.49-1.56,3.49-3.49
					C552.08,642.36,550.63,640.84,548.79,640.74z"/>
				<path class="st4" d="M365.11,577.8c-0.1-1.71-1.52-3.06-3.25-3.06c-1.4,0-2.6,0.89-3.06,2.13c-0.6-0.66-1.47-1.08-2.44-1.08
					c-1.82,0-3.29,1.47-3.29,3.29c0,1.25,0.7,2.34,1.73,2.9c-0.5,0.57-0.8,1.32-0.8,2.14c0,1.8,1.46,3.26,3.26,3.26
					c0.62,0,1.2-0.17,1.7-0.48c0,0,0.01,0.01,0.01,0.01c-0.03,0.15-0.05,0.31-0.05,0.47c0,1.3,1.06,2.36,2.36,2.36
					c1.3,0,2.36-1.06,2.36-2.36c0-0.19-0.03-0.38-0.07-0.55c0.4,0.12,0.83,0.18,1.27,0.18c2.54,0,4.61-2.06,4.61-4.61
					C369.45,579.94,367.53,577.94,365.11,577.8z"/>
				<path class="st4" d="M306.71,617.84c-0.08-1.29-1.15-2.32-2.46-2.32c-1.06,0-1.97,0.67-2.32,1.61c-0.46-0.5-1.11-0.82-1.85-0.82
					c-1.38,0-2.49,1.12-2.49,2.49c0,0.95,0.53,1.77,1.31,2.19c-0.38,0.43-0.61,1-0.61,1.62c0,1.36,1.1,2.47,2.47,2.47
					c0.47,0,0.91-0.13,1.29-0.36c0,0,0.01,0,0.01,0.01c-0.02,0.11-0.04,0.23-0.04,0.36c0,0.99,0.8,1.79,1.79,1.79
					c0.99,0,1.79-0.8,1.79-1.79c0-0.14-0.02-0.28-0.05-0.42c0.31,0.09,0.63,0.14,0.96,0.14c1.93,0,3.49-1.56,3.49-3.49
					C310,619.46,308.54,617.94,306.71,617.84z"/>
				<path class="st4" d="M184.66,333.31c-5.38,0-10.41,1.48-14.72,4.04c-1.03-15-13.51-26.85-28.78-26.85
					c-3.72,0-7.27,0.71-10.54,1.99c-4.16-13.91-17.04-24.05-32.3-24.05c-18.62,0-33.72,15.1-33.72,33.72c0,0.48,0.02,0.95,0.04,1.42
					c-0.01,0-0.02,0-0.04,0c-18.62,0-33.72,15.1-33.72,33.72c0,18.62,15.1,33.72,33.72,33.72c1.16,0,2.31-0.06,3.44-0.17h113.47
					c1.03,0.11,2.08,0.17,3.15,0.17c15.93,0,28.85-12.92,28.85-28.85C213.52,346.23,200.6,333.31,184.66,333.31z"/>
				<path class="st4" d="M647.53,503.35c4.48,0,8.67,1.23,12.26,3.36c0.86-12.49,11.25-22.36,23.96-22.36c3.1,0,6.05,0.59,8.77,1.66
					c3.46-11.58,14.19-20.02,26.9-20.02c15.5,0,28.07,12.57,28.07,28.07c0,0.4-0.01,0.79-0.03,1.18c0.01,0,0.02,0,0.03,0
					c15.5,0,28.07,12.57,28.07,28.07c0,15.5-12.57,28.07-28.07,28.07c-0.97,0-1.92-0.05-2.87-0.14h-94.48
					c-0.86,0.09-1.73,0.14-2.62,0.14c-13.27,0-24.02-10.76-24.02-24.02C623.51,514.11,634.26,503.35,647.53,503.35z"/>
				<path class="st4" d="M13.84,519.13c2.45,0,4.75,0.67,6.71,1.84c0.47-6.84,6.16-12.24,13.12-12.24c1.7,0,3.32,0.32,4.8,0.91
					c1.9-6.34,7.77-10.96,14.73-10.96c8.49,0,15.37,6.88,15.37,15.37c0,0.22-0.01,0.43-0.02,0.65c0.01,0,0.01,0,0.02,0
					c8.49,0,15.37,6.88,15.37,15.37c0,8.49-6.88,15.37-15.37,15.37c-0.53,0-1.05-0.03-1.57-0.08H15.27
					c-0.47,0.05-0.95,0.08-1.43,0.08c-7.26,0-13.15-5.89-13.15-13.15C0.69,525.02,6.58,519.13,13.84,519.13z"/>
				<path class="st4" d="M648.26,315.35c-3.09,0-5.98,0.85-8.45,2.32c-0.59-8.61-7.76-15.41-16.52-15.41c-1.89,0-3.7,0.34-5.4,0.92
					c-2.44-7.89-9.8-13.63-18.49-13.63c-0.65,0-1.3,0.04-1.93,0.11c-8.12,0.51-14.89,6.01-17.23,13.49
					c-1.7-0.59-3.52-0.93-5.42-0.93c-8.76,0-15.93,6.8-16.52,15.41c-2.47-1.47-5.36-2.32-8.45-2.32c-9.15,0-16.56,7.41-16.56,16.56
					c0,9.15,7.41,16.56,16.56,16.56c0.61,0,1.21-0.04,1.81-0.1h25.44c0.74,0.09,1.5,0.14,2.26,0.14c0.67,0,1.33-0.03,1.98-0.1h36.32
					c0.37,0.02,0.74,0.06,1.11,0.06c0.38,0,0.74-0.04,1.11-0.06h26.59c0.59,0.06,1.2,0.1,1.81,0.1c9.15,0,16.56-7.41,16.56-16.56
					C664.82,322.77,657.41,315.35,648.26,315.35z"/>
			</g>
		</g>
		<g style="display:none;clip-path:url(#SVGID_00000129165002324012875740000007136068094959462802_);">
			<g class="st3">
				<text transform="matrix(1 0 0 1 348.0702 634.5273)" class="st5 st6 st7">BUSINES</text>
				<text transform="matrix(1 0 0 1 293.7748 687.2695)" class="st5 st8 st9 st10">START UP</text>
			</g>
			<rect x="309.91" y="715.6" class="st11" width="180.17" height="35.21"/>
			<text transform="matrix(1 0 0 1 322.1207 721.9932)"><tspan x="0" y="0" class="st12 st6 st13">Lorem ipsum dolor sit amet, consectetuer </tspan><tspan x="2.82" y="10.8" class="st12 st6 st13">adipiscing elit, sed diam nonummy nibh </tspan><tspan x="-2.84" y="21.6" class="st12 st6 st13">euismod tincidunt ut laoreet dolore magna </tspan></text>
			<line class="st14" x1="368.02" y1="701.81" x2="431.98" y2="701.81"/>
		</g>
	</g>
	<rect x="343.81" y="623.19" class="st15" width="119.81" height="12.26"/>
</g>
<g id="OBJECT">
	<g>
		<g>
			<g>
				
					<linearGradient id="SVGID_00000168810764194917593680000002941427991537741478_" gradientUnits="userSpaceOnUse" x1="411.9195" y1="624.1448" x2="411.9195" y2="800">
					<stop  offset="5.586590e-03" style="stop-color:#F7BD6F"/>
					<stop  offset="0.4496" style="stop-color:#F39958"/>
					<stop  offset="1" style="stop-color:#ED6637"/>
				</linearGradient>
				<path style="fill:url(#SVGID_00000168810764194917593680000002941427991537741478_);" d="M462.26,624.14H361.58
					c0,0-33.02,34.59-28.47,85.5c0,0,9.34-10.56,16.75-16.04c1.35-1,3.21,0.15,2.95,1.8c-1.78,11.5-0.25,45.99,59.11,104.6
					c59.37-58.61,60.9-93.1,59.11-104.6c-0.26-1.66,1.6-2.8,2.95-1.8c7.41,5.48,16.75,16.05,16.75,16.05
					C495.28,658.74,462.26,624.14,462.26,624.14z"/>
			</g>
			<path class="st17" d="M411.63,584.9v0.03c0,0-64.47,51.17,0,139.31v-0.03C476.11,636.07,411.63,584.9,411.63,584.9z"/>
			<path class="st4" d="M411.63,617.61v0.02c0,0-38.53,30.58,0,83.26v-0.02C450.16,648.19,411.63,617.61,411.63,617.61z"/>
		</g>
		<g>
			<path class="st18" d="M339.29,601.04l7.32,14.12c3.12,6.01,9.33,9.79,16.1,9.79h48.53h0.08h48.53c6.77,0,12.98-3.78,16.1-9.79
				l7.32-14.12H339.29z"/>
			<path class="st19" d="M318.54,574.26l9.43,18.19c4.02,7.75,12.01,12.61,20.74,12.61h62.51h0.1h62.51
				c8.73,0,16.72-4.86,20.74-12.61l9.43-18.19H318.54z"/>
		</g>
		<g>
			<g>
				<path class="st20" d="M500.7,434.91c0,0,157.82,54.21,147.78,212.81c0,0-132.88-135.37-205.2-106.41L500.7,434.91z"/>
			</g>
			<g>
				<path class="st20" d="M323.14,434.91c0,0-157.82,54.21-147.78,212.81c0,0,132.88-135.37,205.2-106.41L323.14,434.91z"/>
			</g>
		</g>
		<path class="st20" d="M487.91,131.69C469.66,85.84,444.78,41.08,411.24,0l-0.02,0.18L411.2,0
			c-33.19,40.66-57.89,84.92-76.09,130.27C370.59,121.79,424.16,116.06,487.91,131.69z"/>
		<path class="st4" d="M490,137.08l0.02,0.01l-2.11-5.39c-84.43-21.67-152.81-1.42-152.81-1.42l-2.68,6.81c0,0,0.01,0,0.01,0
			c-69.77,180.65-38.14,376.76-26.92,432.13c1.81,8.92,9.67,15.31,18.77,15.31h11.92h151.28h10.67c9.1,0,16.96-6.39,18.77-15.31
			C528.14,513.84,559.78,317.73,490,137.08z"/>
		<g>
			<circle class="st21" cx="408.09" cy="277.7" r="64.73"/>
			
				<ellipse transform="matrix(0.9256 -0.3785 0.3785 0.9256 -75.6552 176.5347)" class="st22" cx="411.22" cy="280.71" rx="49.53" ry="49.53"/>
			<circle class="st23" cx="408.09" cy="277.7" r="49.07"/>
			<g class="st24">
				<path class="st25" d="M411.22,236.93c19.43,0,36.17,11.32,44.12,27.71c-5.73-20.75-24.68-36-47.25-36
					c-27.1,0-49.07,21.97-49.07,49.07c0,7.67,1.81,14.89,4.94,21.36c-1.15-4.16-1.81-8.53-1.81-13.06
					C362.16,258.9,384.12,236.93,411.22,236.93z"/>
			</g>
		</g>
		<path class="st20" d="M411.92,454.67c-52.89,120.38,0,224.45,0,224.45S464.81,575.04,411.92,454.67z"/>
	</g>
</g>
</svg>
